<svg id="Слой_1" data-name="Слой 1" xmlns="http://www.w3.org/2000/svg" viewBox="0 0 44.06 44"><defs><style>.cls-1{fill:#d5b400;}</style></defs><title>logo head-8-b1</title><g id="Слой_2" data-name="Слой 2"><g id="Layer_1" data-name="Layer 1"><path class="cls-1" d="M18.84,14.93c.05-.09.78-1.84.78-1.84A15.85,15.85,0,0,1,18.4,9.22a26.93,26.93,0,0,0-1.1,2.87,1.47,1.47,0,0,0,.29,1.11Z"/><path class="cls-1" d="M22,9.3a9.91,9.91,0,0,1,.29-3.47h-.15A16,16,0,0,0,19.62,6a7.46,7.46,0,0,0,.54,6.09Z"/><path class="cls-1" d="M23.54,8.36a2.83,2.83,0,0,1,2.76.13s.28-.75.81-1.87a16.16,16.16,0,0,0-3.77-.75,13.58,13.58,0,0,0-.51,1.79s-.11,1.1.71.7"/><path class="cls-1" d="M28.48,15.66A33,33,0,0,1,31.43,8.8,15.82,15.82,0,0,0,28,6.94,23.47,23.47,0,0,0,26.76,9.1Z"/><path class="cls-1" d="M36.31,14.35a16,16,0,0,0-4.1-4.95A25.31,25.31,0,0,0,30,14.77c1.87-1.26,4.07-1.21,6.32-.42"/><path class="cls-1" d="M37.47,17.1a9.23,9.23,0,0,0-.86-.65c-4-2.68-7-.37-7-.37,5.18,3.36,7,5.09,8.55,7.47a14.66,14.66,0,0,0,.09-1.62,16.12,16.12,0,0,0-.74-4.83"/><path class="cls-1" d="M33,24.33a20.49,20.49,0,0,0,.06-4.95.27.27,0,0,0-.3-.21.25.25,0,0,0-.17.11L29.36,25a1.47,1.47,0,0,0-.2.74,19,19,0,0,1-1.75,7.72,10.27,10.27,0,0,0,4.53-7.24,31,31,0,0,1-1.05,7.9A24.07,24.07,0,0,0,33.38,29a18.22,18.22,0,0,0,1.2,3.18,16.94,16.94,0,0,0,1.3-1.84c-.14-.56-.27-1.15-.37-1.78a10.78,10.78,0,0,0,.63,1.33,15.68,15.68,0,0,0,1.31-3h0a20.29,20.29,0,0,0-2.94-6.13A15.77,15.77,0,0,1,33,24.33"/><path class="cls-1" d="M23,9.58c-.11.18-1.19,3.06-1.19,3.06l.08-.07c.25-.23.48-.47.72-.71a5.17,5.17,0,0,1,.64-.6.72.72,0,0,1,.66-.15c.23.09.31.29.4.51s.19.49.28.74a16.26,16.26,0,0,1,.67,3c.05.33.09.67.11,1a22.82,22.82,0,0,0,.9-2.8,26.57,26.57,0,0,0-1.81-3.81c-.25-.24-1.35-.32-1.46-.14"/><path class="cls-1" d="M26.36,26.89c.14-.33.29-.67.45-1,.55-1.08,1.23-2.11,1.23-2.11l-.56,3.13a.2.2,0,0,0,.17.21.19.19,0,0,0,.18-.09,53.65,53.65,0,0,1,4.45-8.24A27.67,27.67,0,0,0,29.9,21a.71.71,0,0,1-1.22-.32,29.25,29.25,0,0,0-5.12,4.76.2.2,0,0,1-.27,0,.21.21,0,0,1-.06-.2,26.6,26.6,0,0,1,1.41-4.35.23.23,0,0,1,.3-.11h0c.11.06.1.18.13.28a.66.66,0,0,0,.3.52.32.32,0,0,0,.42-.12,5.46,5.46,0,0,1,2.8-2.89,7.49,7.49,0,0,0-2.5,0,.6.6,0,0,1-.68-.41c-.09-.25-.05-1-.15-1.2l-.62,1a.13.13,0,0,1-.18,0,.13.13,0,0,1-.06-.11,10.4,10.4,0,0,0-.46-3.76L23.35,16a.38.38,0,0,1-.47.26h0a.38.38,0,0,1-.23-.25L21.3,13.41s-1.62,1-1.71,5.25c.15-.09.54-.41.54-.41s-.5,1-.31,1.13.57.12.92-.25,1-.75,1-.53a3.86,3.86,0,0,1-.4,1c-.17.38-.19.79-.47.8a7.93,7.93,0,0,1-1.28-.2S18,24.94,18.16,28a2.59,2.59,0,0,0,1.18,1.18s.64-.29.4-1.88c0,0,.55.13.51.6s-.5,1.77.42,2.57l1.15-1.3c.5-.58,1.33-1.41,2.5-.61,0,0-2.55,1.48-2.66,2.39-.39.72,1.28,3.3,2.46,3.89a3.73,3.73,0,0,1-.1-2.31l1.09.54c-.37-1.81,1.07-2.91,1.38-4,.24-.82-.65-.56-.26-1.89a1.17,1.17,0,0,1,.13-.37"/><path class="cls-1" d="M22.09,41.62A19.62,19.62,0,1,1,41.71,22h0A19.64,19.64,0,0,1,22.09,41.62m0-37.06A17.44,17.44,0,1,0,39.53,22,17.44,17.44,0,0,0,22.09,4.56"/><path class="cls-1" d="M22,44a22,22,0,1,1,22-22A22,22,0,0,1,22,44M22,1.32a20.75,20.75,0,1,0,.05,0"/></g></g></svg>