<svg width="140" height="41" viewBox="0 0 140 41" fill="none" xmlns="http://www.w3.org/2000/svg">
<g filter="url(#filter0_d)">
<rect x="4" width="132" height="33" rx="8" fill="url(#paint0_linear)" fill-opacity="0.69"/>
<path d="M26.6406 19.708C26.2806 20.1774 25.7816 20.5329 25.1436 20.7744C24.5055 21.016 23.7809 21.1367 22.9697 21.1367C22.1357 21.1367 21.3975 20.9476 20.7549 20.5693C20.1123 20.1911 19.6156 19.651 19.2646 18.9492C18.9183 18.2428 18.7383 17.4202 18.7246 16.4814V15.7021C18.7246 14.1982 19.0846 13.0247 19.8047 12.1816C20.5247 11.334 21.5296 10.9102 22.8193 10.9102C23.9268 10.9102 24.8063 11.1836 25.458 11.7305C26.1097 12.2773 26.5016 13.0658 26.6338 14.0957H24.9385C24.7471 12.8971 24.0521 12.2979 22.8535 12.2979C22.0788 12.2979 21.4886 12.5781 21.083 13.1387C20.682 13.6947 20.4746 14.5127 20.4609 15.5928V16.3584C20.4609 17.4339 20.6865 18.2702 21.1377 18.8672C21.5934 19.4596 22.2246 19.7559 23.0312 19.7559C23.9154 19.7559 24.5443 19.5553 24.918 19.1543V17.2061H22.8672V15.8936H26.6406V19.708ZM30.2705 19.6191H34.7891V21H28.541V11.0469H30.2705V19.6191ZM43.6211 16.2832C43.6211 17.2585 43.4525 18.1152 43.1152 18.8535C42.778 19.5872 42.2949 20.1523 41.666 20.5488C41.0417 20.9408 40.3216 21.1367 39.5059 21.1367C38.6992 21.1367 37.9792 20.9408 37.3457 20.5488C36.7168 20.1523 36.2292 19.5895 35.8828 18.8604C35.541 18.1312 35.3678 17.2904 35.3633 16.3379V15.7773C35.3633 14.8066 35.5342 13.9499 35.876 13.207C36.2223 12.4642 36.7077 11.8968 37.332 11.5049C37.9609 11.1084 38.681 10.9102 39.4922 10.9102C40.3034 10.9102 41.0212 11.1061 41.6455 11.498C42.2744 11.8854 42.7598 12.446 43.1016 13.1797C43.4434 13.9089 43.6165 14.7588 43.6211 15.7295V16.2832ZM41.8916 15.7637C41.8916 14.6608 41.682 13.8154 41.2627 13.2275C40.848 12.6396 40.2578 12.3457 39.4922 12.3457C38.7448 12.3457 38.1592 12.6396 37.7354 13.2275C37.3161 13.8109 37.1019 14.638 37.0928 15.709V16.2832C37.0928 17.377 37.3047 18.2223 37.7285 18.8193C38.1569 19.4163 38.7493 19.7148 39.5059 19.7148C40.2715 19.7148 40.8594 19.4232 41.2695 18.8398C41.6842 18.2565 41.8916 17.4043 41.8916 16.2832V15.7637ZM50.5459 18.4365C50.5459 17.999 50.391 17.6618 50.0811 17.4248C49.7757 17.1878 49.222 16.9486 48.4199 16.707C47.6178 16.4655 46.9798 16.1966 46.5059 15.9004C45.599 15.3307 45.1455 14.5879 45.1455 13.6719C45.1455 12.8698 45.4714 12.209 46.123 11.6895C46.7793 11.1699 47.6292 10.9102 48.6729 10.9102C49.3656 10.9102 49.9831 11.0378 50.5254 11.293C51.0677 11.5482 51.4938 11.9128 51.8037 12.3867C52.1136 12.8561 52.2686 13.3779 52.2686 13.9521H50.5459C50.5459 13.4326 50.3818 13.027 50.0537 12.7354C49.7301 12.4391 49.2653 12.291 48.6592 12.291C48.0941 12.291 47.6543 12.4118 47.3398 12.6533C47.0299 12.8949 46.875 13.2321 46.875 13.665C46.875 14.0296 47.0436 14.335 47.3809 14.5811C47.7181 14.8226 48.2741 15.0596 49.0488 15.292C49.8236 15.5199 50.4456 15.7819 50.915 16.0781C51.3844 16.3698 51.7285 16.707 51.9473 17.0898C52.166 17.4681 52.2754 17.9124 52.2754 18.4229C52.2754 19.2523 51.9564 19.9131 51.3184 20.4053C50.6849 20.8929 49.8236 21.1367 48.7344 21.1367C48.0143 21.1367 47.3512 21.0046 46.7451 20.7402C46.1436 20.4714 45.6742 20.1022 45.3369 19.6328C45.0042 19.1634 44.8379 18.6165 44.8379 17.9922H46.5674C46.5674 18.5573 46.7542 18.9948 47.1279 19.3047C47.5016 19.6146 48.0371 19.7695 48.7344 19.7695C49.3359 19.7695 49.7871 19.6488 50.0879 19.4072C50.3932 19.1611 50.5459 18.8376 50.5459 18.4365ZM58.9951 18.4365C58.9951 17.999 58.8402 17.6618 58.5303 17.4248C58.2249 17.1878 57.6712 16.9486 56.8691 16.707C56.0671 16.4655 55.429 16.1966 54.9551 15.9004C54.0482 15.3307 53.5947 14.5879 53.5947 13.6719C53.5947 12.8698 53.9206 12.209 54.5723 11.6895C55.2285 11.1699 56.0785 10.9102 57.1221 10.9102C57.8148 10.9102 58.4323 11.0378 58.9746 11.293C59.5169 11.5482 59.943 11.9128 60.2529 12.3867C60.5628 12.8561 60.7178 13.3779 60.7178 13.9521H58.9951C58.9951 13.4326 58.8311 13.027 58.5029 12.7354C58.1794 12.4391 57.7145 12.291 57.1084 12.291C56.5433 12.291 56.1035 12.4118 55.7891 12.6533C55.4792 12.8949 55.3242 13.2321 55.3242 13.665C55.3242 14.0296 55.4928 14.335 55.8301 14.5811C56.1673 14.8226 56.7233 15.0596 57.498 15.292C58.2728 15.5199 58.8949 15.7819 59.3643 16.0781C59.8337 16.3698 60.1777 16.707 60.3965 17.0898C60.6152 17.4681 60.7246 17.9124 60.7246 18.4229C60.7246 19.2523 60.4056 19.9131 59.7676 20.4053C59.1341 20.8929 58.2728 21.1367 57.1836 21.1367C56.4635 21.1367 55.8005 21.0046 55.1943 20.7402C54.5928 20.4714 54.1234 20.1022 53.7861 19.6328C53.4535 19.1634 53.2871 18.6165 53.2871 17.9922H55.0166C55.0166 18.5573 55.2035 18.9948 55.5771 19.3047C55.9508 19.6146 56.4863 19.7695 57.1836 19.7695C57.7852 19.7695 58.2363 19.6488 58.5371 19.4072C58.8424 19.1611 58.9951 18.8376 58.9951 18.4365ZM65.4893 15.7637L67.7793 11.0469H69.6934L66.3574 17.3359V21H64.6211V17.3359L61.2783 11.0469H63.1992L65.4893 15.7637ZM79.4619 18.4365C79.4619 17.999 79.307 17.6618 78.9971 17.4248C78.6917 17.1878 78.138 16.9486 77.3359 16.707C76.5339 16.4655 75.8958 16.1966 75.4219 15.9004C74.515 15.3307 74.0615 14.5879 74.0615 13.6719C74.0615 12.8698 74.3874 12.209 75.0391 11.6895C75.6953 11.1699 76.5452 10.9102 77.5889 10.9102C78.2816 10.9102 78.8991 11.0378 79.4414 11.293C79.9837 11.5482 80.4098 11.9128 80.7197 12.3867C81.0296 12.8561 81.1846 13.3779 81.1846 13.9521H79.4619C79.4619 13.4326 79.2979 13.027 78.9697 12.7354C78.6462 12.4391 78.1813 12.291 77.5752 12.291C77.0101 12.291 76.5703 12.4118 76.2559 12.6533C75.946 12.8949 75.791 13.2321 75.791 13.665C75.791 14.0296 75.9596 14.335 76.2969 14.5811C76.6341 14.8226 77.1901 15.0596 77.9648 15.292C78.7396 15.5199 79.3617 15.7819 79.8311 16.0781C80.3005 16.3698 80.6445 16.707 80.8633 17.0898C81.082 17.4681 81.1914 17.9124 81.1914 18.4229C81.1914 19.2523 80.8724 19.9131 80.2344 20.4053C79.6009 20.8929 78.7396 21.1367 77.6504 21.1367C76.9303 21.1367 76.2673 21.0046 75.6611 20.7402C75.0596 20.4714 74.5902 20.1022 74.2529 19.6328C73.9202 19.1634 73.7539 18.6165 73.7539 17.9922H75.4834C75.4834 18.5573 75.6702 18.9948 76.0439 19.3047C76.4176 19.6146 76.9531 19.7695 77.6504 19.7695C78.252 19.7695 78.7031 19.6488 79.0039 19.4072C79.3092 19.1611 79.4619 18.8376 79.4619 18.4365ZM84.5342 21H82.8115V11.0469H84.5342V21ZM88.3896 19.6191H92.9082V21H86.6602V11.0469H88.3896V19.6191ZM96.333 18.833L98.8623 11.0469H100.763L97.1807 21H95.5059L91.9375 11.0469H93.8311L96.333 18.833ZM107.708 16.5566H103.62V19.6191H108.398V21H101.891V11.0469H108.351V12.4414H103.62V15.1895H107.708V16.5566ZM113.464 17.165H111.536V21H109.807V11.0469H113.307C114.455 11.0469 115.341 11.3044 115.966 11.8193C116.59 12.3343 116.902 13.0794 116.902 14.0547C116.902 14.7201 116.741 15.2783 116.417 15.7295C116.098 16.1761 115.651 16.5202 115.077 16.7617L117.312 20.9111V21H115.46L113.464 17.165ZM111.536 15.7773H113.313C113.897 15.7773 114.353 15.6315 114.681 15.3398C115.009 15.0436 115.173 14.6403 115.173 14.1299C115.173 13.5967 115.02 13.1842 114.715 12.8926C114.414 12.6009 113.963 12.4505 113.361 12.4414H111.536V15.7773Z" fill="white"/>
</g>
<defs>
<filter id="filter0_d" x="0" y="0" width="140" height="41" filterUnits="userSpaceOnUse" color-interpolation-filters="sRGB">
<feFlood flood-opacity="0" result="BackgroundImageFix"/>
<feColorMatrix in="SourceAlpha" type="matrix" values="0 0 0 0 0 0 0 0 0 0 0 0 0 0 0 0 0 0 127 0"/>
<feOffset dy="4"/>
<feGaussianBlur stdDeviation="2"/>
<feColorMatrix type="matrix" values="0 0 0 0 0 0 0 0 0 0 0 0 0 0 0 0 0 0 0.25 0"/>
<feBlend mode="normal" in2="BackgroundImageFix" result="effect1_dropShadow"/>
<feBlend mode="normal" in="SourceGraphic" in2="effect1_dropShadow" result="shape"/>
</filter>
<linearGradient id="paint0_linear" x1="70" y1="0" x2="70" y2="33" gradientUnits="userSpaceOnUse">
<stop stop-color="#D8D8D8"/>
<stop offset="1" stop-color="white" stop-opacity="0.85"/>
</linearGradient>
</defs>
</svg>
