<svg width="140" height="41" viewBox="0 0 140 41" fill="none" xmlns="http://www.w3.org/2000/svg">
<g filter="url(#filter0_d)">
<rect x="4" width="132" height="33" rx="8" fill="url(#paint0_linear)" fill-opacity="0.69"/>
<path d="M32.6406 19.708C32.2806 20.1774 31.7816 20.5329 31.1436 20.7744C30.5055 21.016 29.7809 21.1367 28.9697 21.1367C28.1357 21.1367 27.3975 20.9476 26.7549 20.5693C26.1123 20.1911 25.6156 19.651 25.2646 18.9492C24.9183 18.2428 24.7383 17.4202 24.7246 16.4814V15.7021C24.7246 14.1982 25.0846 13.0247 25.8047 12.1816C26.5247 11.334 27.5296 10.9102 28.8193 10.9102C29.9268 10.9102 30.8063 11.1836 31.458 11.7305C32.1097 12.2773 32.5016 13.0658 32.6338 14.0957H30.9385C30.7471 12.8971 30.0521 12.2979 28.8535 12.2979C28.0788 12.2979 27.4886 12.5781 27.083 13.1387C26.682 13.6947 26.4746 14.5127 26.4609 15.5928V16.3584C26.4609 17.4339 26.6865 18.2702 27.1377 18.8672C27.5934 19.4596 28.2246 19.7559 29.0312 19.7559C29.9154 19.7559 30.5443 19.5553 30.918 19.1543V17.2061H28.8672V15.8936H32.6406V19.708ZM36.2705 19.6191H40.7891V21H34.541V11.0469H36.2705V19.6191ZM49.6211 16.2832C49.6211 17.2585 49.4525 18.1152 49.1152 18.8535C48.778 19.5872 48.2949 20.1523 47.666 20.5488C47.0417 20.9408 46.3216 21.1367 45.5059 21.1367C44.6992 21.1367 43.9792 20.9408 43.3457 20.5488C42.7168 20.1523 42.2292 19.5895 41.8828 18.8604C41.541 18.1312 41.3678 17.2904 41.3633 16.3379V15.7773C41.3633 14.8066 41.5342 13.9499 41.876 13.207C42.2223 12.4642 42.7077 11.8968 43.332 11.5049C43.9609 11.1084 44.681 10.9102 45.4922 10.9102C46.3034 10.9102 47.0212 11.1061 47.6455 11.498C48.2744 11.8854 48.7598 12.446 49.1016 13.1797C49.4434 13.9089 49.6165 14.7588 49.6211 15.7295V16.2832ZM47.8916 15.7637C47.8916 14.6608 47.682 13.8154 47.2627 13.2275C46.848 12.6396 46.2578 12.3457 45.4922 12.3457C44.7448 12.3457 44.1592 12.6396 43.7354 13.2275C43.3161 13.8109 43.1019 14.638 43.0928 15.709V16.2832C43.0928 17.377 43.3047 18.2223 43.7285 18.8193C44.1569 19.4163 44.7493 19.7148 45.5059 19.7148C46.2715 19.7148 46.8594 19.4232 47.2695 18.8398C47.6842 18.2565 47.8916 17.4043 47.8916 16.2832V15.7637ZM56.5459 18.4365C56.5459 17.999 56.391 17.6618 56.0811 17.4248C55.7757 17.1878 55.222 16.9486 54.4199 16.707C53.6178 16.4655 52.9798 16.1966 52.5059 15.9004C51.599 15.3307 51.1455 14.5879 51.1455 13.6719C51.1455 12.8698 51.4714 12.209 52.123 11.6895C52.7793 11.1699 53.6292 10.9102 54.6729 10.9102C55.3656 10.9102 55.9831 11.0378 56.5254 11.293C57.0677 11.5482 57.4938 11.9128 57.8037 12.3867C58.1136 12.8561 58.2686 13.3779 58.2686 13.9521H56.5459C56.5459 13.4326 56.3818 13.027 56.0537 12.7354C55.7301 12.4391 55.2653 12.291 54.6592 12.291C54.0941 12.291 53.6543 12.4118 53.3398 12.6533C53.0299 12.8949 52.875 13.2321 52.875 13.665C52.875 14.0296 53.0436 14.335 53.3809 14.5811C53.7181 14.8226 54.2741 15.0596 55.0488 15.292C55.8236 15.5199 56.4456 15.7819 56.915 16.0781C57.3844 16.3698 57.7285 16.707 57.9473 17.0898C58.166 17.4681 58.2754 17.9124 58.2754 18.4229C58.2754 19.2523 57.9564 19.9131 57.3184 20.4053C56.6849 20.8929 55.8236 21.1367 54.7344 21.1367C54.0143 21.1367 53.3512 21.0046 52.7451 20.7402C52.1436 20.4714 51.6742 20.1022 51.3369 19.6328C51.0042 19.1634 50.8379 18.6165 50.8379 17.9922H52.5674C52.5674 18.5573 52.7542 18.9948 53.1279 19.3047C53.5016 19.6146 54.0371 19.7695 54.7344 19.7695C55.3359 19.7695 55.7871 19.6488 56.0879 19.4072C56.3932 19.1611 56.5459 18.8376 56.5459 18.4365ZM64.9951 18.4365C64.9951 17.999 64.8402 17.6618 64.5303 17.4248C64.2249 17.1878 63.6712 16.9486 62.8691 16.707C62.0671 16.4655 61.429 16.1966 60.9551 15.9004C60.0482 15.3307 59.5947 14.5879 59.5947 13.6719C59.5947 12.8698 59.9206 12.209 60.5723 11.6895C61.2285 11.1699 62.0785 10.9102 63.1221 10.9102C63.8148 10.9102 64.4323 11.0378 64.9746 11.293C65.5169 11.5482 65.943 11.9128 66.2529 12.3867C66.5628 12.8561 66.7178 13.3779 66.7178 13.9521H64.9951C64.9951 13.4326 64.8311 13.027 64.5029 12.7354C64.1794 12.4391 63.7145 12.291 63.1084 12.291C62.5433 12.291 62.1035 12.4118 61.7891 12.6533C61.4792 12.8949 61.3242 13.2321 61.3242 13.665C61.3242 14.0296 61.4928 14.335 61.8301 14.5811C62.1673 14.8226 62.7233 15.0596 63.498 15.292C64.2728 15.5199 64.8949 15.7819 65.3643 16.0781C65.8337 16.3698 66.1777 16.707 66.3965 17.0898C66.6152 17.4681 66.7246 17.9124 66.7246 18.4229C66.7246 19.2523 66.4056 19.9131 65.7676 20.4053C65.1341 20.8929 64.2728 21.1367 63.1836 21.1367C62.4635 21.1367 61.8005 21.0046 61.1943 20.7402C60.5928 20.4714 60.1234 20.1022 59.7861 19.6328C59.4535 19.1634 59.2871 18.6165 59.2871 17.9922H61.0166C61.0166 18.5573 61.2035 18.9948 61.5771 19.3047C61.9508 19.6146 62.4863 19.7695 63.1836 19.7695C63.7852 19.7695 64.2363 19.6488 64.5371 19.4072C64.8424 19.1611 64.9951 18.8376 64.9951 18.4365ZM71.4893 15.7637L73.7793 11.0469H75.6934L72.3574 17.3359V21H70.6211V17.3359L67.2783 11.0469H69.1992L71.4893 15.7637ZM87.8887 19.708C87.5286 20.1774 87.0296 20.5329 86.3916 20.7744C85.7536 21.016 85.029 21.1367 84.2178 21.1367C83.3838 21.1367 82.6455 20.9476 82.0029 20.5693C81.3604 20.1911 80.8636 19.651 80.5127 18.9492C80.1663 18.2428 79.9863 17.4202 79.9727 16.4814V15.7021C79.9727 14.1982 80.3327 13.0247 81.0527 12.1816C81.7728 11.334 82.7777 10.9102 84.0674 10.9102C85.1748 10.9102 86.0544 11.1836 86.7061 11.7305C87.3577 12.2773 87.7497 13.0658 87.8818 14.0957H86.1865C85.9951 12.8971 85.3001 12.2979 84.1016 12.2979C83.3268 12.2979 82.7367 12.5781 82.3311 13.1387C81.93 13.6947 81.7227 14.5127 81.709 15.5928V16.3584C81.709 17.4339 81.9346 18.2702 82.3857 18.8672C82.8415 19.4596 83.4727 19.7559 84.2793 19.7559C85.1634 19.7559 85.7923 19.5553 86.166 19.1543V17.2061H84.1152V15.8936H87.8887V19.708ZM97.7324 16.2832C97.7324 17.2585 97.5638 18.1152 97.2266 18.8535C96.8893 19.5872 96.4062 20.1523 95.7773 20.5488C95.153 20.9408 94.4329 21.1367 93.6172 21.1367C92.8105 21.1367 92.0905 20.9408 91.457 20.5488C90.8281 20.1523 90.3405 19.5895 89.9941 18.8604C89.6523 18.1312 89.4792 17.2904 89.4746 16.3379V15.7773C89.4746 14.8066 89.6455 13.9499 89.9873 13.207C90.3337 12.4642 90.819 11.8968 91.4434 11.5049C92.0723 11.1084 92.7923 10.9102 93.6035 10.9102C94.4147 10.9102 95.1325 11.1061 95.7568 11.498C96.3857 11.8854 96.8711 12.446 97.2129 13.1797C97.5547 13.9089 97.7279 14.7588 97.7324 15.7295V16.2832ZM96.0029 15.7637C96.0029 14.6608 95.7933 13.8154 95.374 13.2275C94.9593 12.6396 94.3691 12.3457 93.6035 12.3457C92.8561 12.3457 92.2705 12.6396 91.8467 13.2275C91.4274 13.8109 91.2132 14.638 91.2041 15.709V16.2832C91.2041 17.377 91.416 18.2223 91.8398 18.8193C92.2682 19.4163 92.8607 19.7148 93.6172 19.7148C94.3828 19.7148 94.9707 19.4232 95.3809 18.8398C95.7956 18.2565 96.0029 17.4043 96.0029 16.2832V15.7637ZM101.185 19.6191H105.703V21H99.4551V11.0469H101.185V19.6191ZM107.029 21V11.0469H109.969C110.848 11.0469 111.628 11.2428 112.307 11.6348C112.99 12.0267 113.519 12.5827 113.893 13.3027C114.266 14.0228 114.453 14.8477 114.453 15.7773V16.2764C114.453 17.2197 114.264 18.0492 113.886 18.7646C113.512 19.4801 112.977 20.0316 112.279 20.4189C111.587 20.8063 110.791 21 109.894 21H107.029ZM108.759 12.4414V19.6191H109.887C110.794 19.6191 111.489 19.3366 111.972 18.7715C112.459 18.2018 112.708 17.3861 112.717 16.3242V15.7705C112.717 14.6904 112.482 13.8656 112.013 13.2959C111.543 12.7262 110.862 12.4414 109.969 12.4414H108.759Z" fill="white"/>
</g>
<defs>
<filter id="filter0_d" x="0" y="0" width="140" height="41" filterUnits="userSpaceOnUse" color-interpolation-filters="sRGB">
<feFlood flood-opacity="0" result="BackgroundImageFix"/>
<feColorMatrix in="SourceAlpha" type="matrix" values="0 0 0 0 0 0 0 0 0 0 0 0 0 0 0 0 0 0 127 0"/>
<feOffset dy="4"/>
<feGaussianBlur stdDeviation="2"/>
<feColorMatrix type="matrix" values="0 0 0 0 0 0 0 0 0 0 0 0 0 0 0 0 0 0 0.25 0"/>
<feBlend mode="normal" in2="BackgroundImageFix" result="effect1_dropShadow"/>
<feBlend mode="normal" in="SourceGraphic" in2="effect1_dropShadow" result="shape"/>
</filter>
<linearGradient id="paint0_linear" x1="70" y1="0" x2="70" y2="33" gradientUnits="userSpaceOnUse">
<stop stop-color="#B38728"/>
<stop offset="1" stop-color="#FFF162"/>
</linearGradient>
</defs>
</svg>
