<svg width="140" height="41" viewBox="0 0 140 41" fill="none" xmlns="http://www.w3.org/2000/svg">
<g filter="url(#filter0_d)">
<rect x="4" width="132" height="33" rx="8" fill="#1E1E1E"/>
<path d="M27.2539 11.0469L30.125 18.6758L32.9893 11.0469H35.2246V21H33.502V17.7188L33.6729 13.3301L30.7334 21H29.4961L26.5635 13.3369L26.7344 17.7188V21H25.0117V11.0469H27.2539ZM42.9697 18.6826H39.1143L38.3076 21H36.5098L40.2695 11.0469H41.8213L45.5879 21H43.7832L42.9697 18.6826ZM39.5996 17.2881H42.4844L41.042 13.1592L39.5996 17.2881ZM53.0938 12.4414H49.9902V21H48.2744V12.4414H45.1982V11.0469H53.0938V12.4414ZM61.707 12.4414H58.6035V21H56.8877V12.4414H53.8115V11.0469H61.707V12.4414ZM66.0957 21V11.0469H69.5068C70.6325 11.0469 71.4893 11.2725 72.0771 11.7236C72.665 12.1748 72.959 12.847 72.959 13.7402C72.959 14.196 72.8359 14.6061 72.5898 14.9707C72.3438 15.3353 71.9837 15.6178 71.5098 15.8184C72.0475 15.9642 72.4622 16.2399 72.7539 16.6455C73.0501 17.0465 73.1982 17.5296 73.1982 18.0947C73.1982 19.029 72.8975 19.7467 72.2959 20.248C71.6989 20.7493 70.8421 21 69.7256 21H66.0957ZM67.8252 16.5088V19.6191H69.7461C70.2884 19.6191 70.7122 19.4847 71.0176 19.2158C71.3229 18.9469 71.4756 18.5732 71.4756 18.0947C71.4756 17.0602 70.9469 16.5316 69.8896 16.5088H67.8252ZM67.8252 15.2373H69.5205C70.0583 15.2373 70.4775 15.1165 70.7783 14.875C71.0837 14.6289 71.2363 14.2826 71.2363 13.8359C71.2363 13.3438 71.0951 12.9883 70.8125 12.7695C70.5345 12.5508 70.0993 12.4414 69.5068 12.4414H67.8252V15.2373ZM76.6572 19.6191H81.1758V21H74.9277V11.0469H76.6572V19.6191ZM88.21 18.6826H84.3545L83.5479 21H81.75L85.5098 11.0469H87.0615L90.8281 21H89.0234L88.21 18.6826ZM84.8398 17.2881H87.7246L86.2822 13.1592L84.8398 17.2881ZM99.4072 17.7598C99.307 18.8216 98.915 19.651 98.2314 20.248C97.5479 20.8405 96.6387 21.1367 95.5039 21.1367C94.7109 21.1367 94.0114 20.9499 93.4053 20.5762C92.8037 20.1979 92.3389 19.6624 92.0107 18.9697C91.6826 18.277 91.5117 17.4727 91.498 16.5566V15.627C91.498 14.6882 91.6644 13.861 91.9971 13.1455C92.3298 12.43 92.806 11.8786 93.4258 11.4912C94.0501 11.1038 94.7702 10.9102 95.5859 10.9102C96.6842 10.9102 97.5684 11.2087 98.2383 11.8057C98.9082 12.4027 99.2979 13.2458 99.4072 14.335H97.6846C97.6025 13.6195 97.3929 13.1045 97.0557 12.79C96.723 12.471 96.2331 12.3115 95.5859 12.3115C94.834 12.3115 94.2552 12.5872 93.8496 13.1387C93.4486 13.6855 93.2435 14.4899 93.2344 15.5518V16.4336C93.2344 17.5091 93.4258 18.3294 93.8086 18.8945C94.196 19.4596 94.7611 19.7422 95.5039 19.7422C96.1829 19.7422 96.6934 19.5895 97.0352 19.2842C97.377 18.9788 97.5934 18.4707 97.6846 17.7598H99.4072ZM103.816 16.7002L102.688 17.8965V21H100.959V11.0469H102.688V15.7158L103.646 14.5332L106.558 11.0469H108.649L104.951 15.4561L108.861 21H106.811L103.816 16.7002Z" fill="white"/>
</g>
<defs>
<filter id="filter0_d" x="0" y="0" width="140" height="41" filterUnits="userSpaceOnUse" color-interpolation-filters="sRGB">
<feFlood flood-opacity="0" result="BackgroundImageFix"/>
<feColorMatrix in="SourceAlpha" type="matrix" values="0 0 0 0 0 0 0 0 0 0 0 0 0 0 0 0 0 0 127 0"/>
<feOffset dy="4"/>
<feGaussianBlur stdDeviation="2"/>
<feColorMatrix type="matrix" values="0 0 0 0 0 0 0 0 0 0 0 0 0 0 0 0 0 0 0.25 0"/>
<feBlend mode="normal" in2="BackgroundImageFix" result="effect1_dropShadow"/>
<feBlend mode="normal" in="SourceGraphic" in2="effect1_dropShadow" result="shape"/>
</filter>
</defs>
</svg>
