<svg width="140" height="41" viewBox="0 0 140 41" fill="none" xmlns="http://www.w3.org/2000/svg">
<g filter="url(#filter0_d)">
<rect x="4" width="132" height="33" rx="8" fill="#E0BCBF" fill-opacity="0.88"/>
<path d="M37.6416 17.165H35.7139V21H33.9844V11.0469H37.4844C38.6328 11.0469 39.5192 11.3044 40.1436 11.8193C40.7679 12.3343 41.0801 13.0794 41.0801 14.0547C41.0801 14.7201 40.9183 15.2783 40.5947 15.7295C40.2757 16.1761 39.8291 16.5202 39.2549 16.7617L41.4902 20.9111V21H39.6377L37.6416 17.165ZM35.7139 15.7773H37.4912C38.0745 15.7773 38.5303 15.6315 38.8584 15.3398C39.1865 15.0436 39.3506 14.6403 39.3506 14.1299C39.3506 13.5967 39.1979 13.1842 38.8926 12.8926C38.5918 12.6009 38.1406 12.4505 37.5391 12.4414H35.7139V15.7773ZM50.6641 16.2832C50.6641 17.2585 50.4954 18.1152 50.1582 18.8535C49.821 19.5872 49.3379 20.1523 48.709 20.5488C48.0846 20.9408 47.3646 21.1367 46.5488 21.1367C45.7422 21.1367 45.0221 20.9408 44.3887 20.5488C43.7598 20.1523 43.2721 19.5895 42.9258 18.8604C42.584 18.1312 42.4108 17.2904 42.4062 16.3379V15.7773C42.4062 14.8066 42.5771 13.9499 42.9189 13.207C43.2653 12.4642 43.7507 11.8968 44.375 11.5049C45.0039 11.1084 45.724 10.9102 46.5352 10.9102C47.3464 10.9102 48.0641 11.1061 48.6885 11.498C49.3174 11.8854 49.8027 12.446 50.1445 13.1797C50.4863 13.9089 50.6595 14.7588 50.6641 15.7295V16.2832ZM48.9346 15.7637C48.9346 14.6608 48.7249 13.8154 48.3057 13.2275C47.891 12.6396 47.3008 12.3457 46.5352 12.3457C45.7878 12.3457 45.2021 12.6396 44.7783 13.2275C44.359 13.8109 44.1449 14.638 44.1357 15.709V16.2832C44.1357 17.377 44.3477 18.2223 44.7715 18.8193C45.1999 19.4163 45.7923 19.7148 46.5488 19.7148C47.3145 19.7148 47.9023 19.4232 48.3125 18.8398C48.7272 18.2565 48.9346 17.4043 48.9346 16.2832V15.7637ZM57.5889 18.4365C57.5889 17.999 57.4339 17.6618 57.124 17.4248C56.8187 17.1878 56.265 16.9486 55.4629 16.707C54.6608 16.4655 54.0228 16.1966 53.5488 15.9004C52.6419 15.3307 52.1885 14.5879 52.1885 13.6719C52.1885 12.8698 52.5143 12.209 53.166 11.6895C53.8223 11.1699 54.6722 10.9102 55.7158 10.9102C56.4085 10.9102 57.026 11.0378 57.5684 11.293C58.1107 11.5482 58.5368 11.9128 58.8467 12.3867C59.1566 12.8561 59.3115 13.3779 59.3115 13.9521H57.5889C57.5889 13.4326 57.4248 13.027 57.0967 12.7354C56.7731 12.4391 56.3083 12.291 55.7021 12.291C55.137 12.291 54.6973 12.4118 54.3828 12.6533C54.0729 12.8949 53.918 13.2321 53.918 13.665C53.918 14.0296 54.0866 14.335 54.4238 14.5811C54.7611 14.8226 55.3171 15.0596 56.0918 15.292C56.8665 15.5199 57.4886 15.7819 57.958 16.0781C58.4274 16.3698 58.7715 16.707 58.9902 17.0898C59.209 17.4681 59.3184 17.9124 59.3184 18.4229C59.3184 19.2523 58.9993 19.9131 58.3613 20.4053C57.7279 20.8929 56.8665 21.1367 55.7773 21.1367C55.0573 21.1367 54.3942 21.0046 53.7881 20.7402C53.1865 20.4714 52.7171 20.1022 52.3799 19.6328C52.0472 19.1634 51.8809 18.6165 51.8809 17.9922H53.6104C53.6104 18.5573 53.7972 18.9948 54.1709 19.3047C54.5446 19.6146 55.0801 19.7695 55.7773 19.7695C56.3789 19.7695 56.8301 19.6488 57.1309 19.4072C57.4362 19.1611 57.5889 18.8376 57.5889 18.4365ZM66.6533 16.5566H62.5654V19.6191H67.3438V21H60.8359V11.0469H67.2959V12.4414H62.5654V15.1895H66.6533V16.5566ZM79.8672 19.708C79.5072 20.1774 79.0081 20.5329 78.3701 20.7744C77.7321 21.016 77.0075 21.1367 76.1963 21.1367C75.3623 21.1367 74.624 20.9476 73.9814 20.5693C73.3389 20.1911 72.8421 19.651 72.4912 18.9492C72.1449 18.2428 71.9648 17.4202 71.9512 16.4814V15.7021C71.9512 14.1982 72.3112 13.0247 73.0312 12.1816C73.7513 11.334 74.7562 10.9102 76.0459 10.9102C77.1533 10.9102 78.0329 11.1836 78.6846 11.7305C79.3363 12.2773 79.7282 13.0658 79.8604 14.0957H78.165C77.9736 12.8971 77.2786 12.2979 76.0801 12.2979C75.3053 12.2979 74.7152 12.5781 74.3096 13.1387C73.9085 13.6947 73.7012 14.5127 73.6875 15.5928V16.3584C73.6875 17.4339 73.9131 18.2702 74.3643 18.8672C74.82 19.4596 75.4512 19.7559 76.2578 19.7559C77.1419 19.7559 77.7708 19.5553 78.1445 19.1543V17.2061H76.0938V15.8936H79.8672V19.708ZM89.7109 16.2832C89.7109 17.2585 89.5423 18.1152 89.2051 18.8535C88.8678 19.5872 88.3848 20.1523 87.7559 20.5488C87.1315 20.9408 86.4115 21.1367 85.5957 21.1367C84.7891 21.1367 84.069 20.9408 83.4355 20.5488C82.8066 20.1523 82.319 19.5895 81.9727 18.8604C81.6309 18.1312 81.4577 17.2904 81.4531 16.3379V15.7773C81.4531 14.8066 81.624 13.9499 81.9658 13.207C82.3122 12.4642 82.7975 11.8968 83.4219 11.5049C84.0508 11.1084 84.7708 10.9102 85.582 10.9102C86.3932 10.9102 87.111 11.1061 87.7354 11.498C88.3643 11.8854 88.8496 12.446 89.1914 13.1797C89.5332 13.9089 89.7064 14.7588 89.7109 15.7295V16.2832ZM87.9814 15.7637C87.9814 14.6608 87.7718 13.8154 87.3525 13.2275C86.9378 12.6396 86.3477 12.3457 85.582 12.3457C84.8346 12.3457 84.249 12.6396 83.8252 13.2275C83.4059 13.8109 83.1917 14.638 83.1826 15.709V16.2832C83.1826 17.377 83.3945 18.2223 83.8184 18.8193C84.2467 19.4163 84.8392 19.7148 85.5957 19.7148C86.3613 19.7148 86.9492 19.4232 87.3594 18.8398C87.7741 18.2565 87.9814 17.4043 87.9814 16.2832V15.7637ZM93.1631 19.6191H97.6816V21H91.4336V11.0469H93.1631V19.6191ZM99.0078 21V11.0469H101.947C102.827 11.0469 103.606 11.2428 104.285 11.6348C104.969 12.0267 105.497 12.5827 105.871 13.3027C106.245 14.0228 106.432 14.8477 106.432 15.7773V16.2764C106.432 17.2197 106.243 18.0492 105.864 18.7646C105.491 19.4801 104.955 20.0316 104.258 20.4189C103.565 20.8063 102.77 21 101.872 21H99.0078ZM100.737 12.4414V19.6191H101.865C102.772 19.6191 103.467 19.3366 103.95 18.7715C104.438 18.2018 104.686 17.3861 104.695 16.3242V15.7705C104.695 14.6904 104.461 13.8656 103.991 13.2959C103.522 12.7262 102.84 12.4414 101.947 12.4414H100.737Z" fill="white"/>
</g>
<defs>
<filter id="filter0_d" x="0" y="0" width="140" height="41" filterUnits="userSpaceOnUse" color-interpolation-filters="sRGB">
<feFlood flood-opacity="0" result="BackgroundImageFix"/>
<feColorMatrix in="SourceAlpha" type="matrix" values="0 0 0 0 0 0 0 0 0 0 0 0 0 0 0 0 0 0 127 0"/>
<feOffset dy="4"/>
<feGaussianBlur stdDeviation="2"/>
<feColorMatrix type="matrix" values="0 0 0 0 0 0 0 0 0 0 0 0 0 0 0 0 0 0 0.25 0"/>
<feBlend mode="normal" in2="BackgroundImageFix" result="effect1_dropShadow"/>
<feBlend mode="normal" in="SourceGraphic" in2="effect1_dropShadow" result="shape"/>
</filter>
</defs>
</svg>
